<svg xmlns="http://www.w3.org/2000/svg" xmlns:svg="http://www.w3.org/2000/svg" id="svg2" width="3840" height="2160" version="1.1" viewBox="0 0 3840 2160"><metadata id="metadata8"/><defs id="defs6"><clipPath id="clipPath936" clipPathUnits="userSpaceOnUse"><path style="fill:#fff;fill-opacity:1;stroke:none;stroke-width:1px;stroke-linecap:butt;stroke-linejoin:miter;stroke-opacity:1" id="path938" d="m 1923.1312,1487.4616 c 32.0065,-44.1432 36.3941,-70.9061 35.4162,-91.6877 0,0 5.1742,8.7013 6.9907,12.8121 l 0.2485,-16.3417 14.0044,-5.8354 24.1241,19.8032 c 0,0 -9.3935,49.9033 -25.0002,70.3561 0,0 -6.8243,-27.1241 -10.9018,-34.5593 0,0 -11.2824,31.9102 -44.8819,45.4527 z"/></clipPath><clipPath id="clipPath949" clipPathUnits="userSpaceOnUse"><path style="fill:#57ff00;fill-opacity:1;stroke:none;stroke-width:1px;stroke-linecap:butt;stroke-linejoin:miter;stroke-opacity:1" id="path951" d="m 2357.3082,1539.9166 c 1.2815,25.2241 8.2029,103.025 -145.579,262.7491 48.8028,-23.3901 80.4668,-37.861 84.193,-38.5494 0,0 -7.4991,69.537 -70.5998,131.0591 -62.3497,60.7899 -248.3686,19.9537 -333.0596,-7.7784 -84.6909,-27.7321 -186.8373,-88.5164 -232.4727,-149.2068 -45.6354,-60.6904 -66.4541,-116.2443 -76.5736,-183.1665 0,0 -5.436,33.3061 -8.2747,61.3391 0,0 -39.1326,-77.8663 -27.1163,-169.3865 12.0163,-91.5201 87.5252,-146.5564 110.14,-157.8163 22.6149,-11.26 50.6047,-29.8506 77.4109,-28.8251 26.8062,1.0254 38.0642,2.8485 55.9198,22.6279 0,0 -8.9607,38.9428 -2.5178,53.7037 6.4429,14.7608 5.1103,10.5387 5.1103,10.5387 0,0 -37.0986,121.5675 85.1407,156.5769 122.2393,35.0094 218.82,-34.4642 259.2332,-85.9506 0,0 7.14,117.9775 -170.6075,163.7406 0,0 217.7458,17.0588 288.7706,-152.4907 -0.718,21.3647 50.2077,182.8698 -126.7378,283.2014 0,0 106.0225,-2.6144 227.6203,-172.3662 z"/></clipPath><clipPath id="clipPath972" clipPathUnits="userSpaceOnUse"><path style="fill:#fff;stroke:none;stroke-width:1px;stroke-linecap:butt;stroke-linejoin:miter;stroke-opacity:1" id="path974" d="m 2111.221,89.093327 c -23.4428,68.535073 -67.2484,163.582843 -190.9197,234.109563 0,0 61.9853,42.71248 124.8088,6.94159 62.8235,-35.77089 70.2014,-110.35823 70.0364,-117.49023 -0.165,-7.13201 -1.4964,-20.16821 -3.9177,-27.10488 0,0 43.1867,-14.04601 62.958,43.67921 19.7712,57.72521 -2.5972,123.85712 -27.2645,169.20131 -24.6672,45.3442 -68.7703,78.90435 -89.6948,88.57148 0,0 43.8319,14.06188 70.7167,0.54174 26.8848,-13.52015 52.665,-39.63086 57.4895,-68.01895 0,0 34.0442,93.72694 -7.9351,138.8738 -41.9792,45.14686 -91.7908,43.25287 -118.4275,21.87885 -26.6367,-21.37403 -36.762,-43.88301 -47.224,-65.55611 -10.462,-21.67311 -39.9388,-38.6716 -59.1232,-35.62545 -19.1843,3.04616 -56.774,24.86319 -70.9299,69.47428 -14.1559,44.61108 -96.8898,35.01239 -120.1108,23.01767 -23.2211,-11.99471 -99.4168,-70.61096 -115.8874,-135.01098 -16.4706,-64.40003 -2.3262,-113.94323 20.8545,-144.42619 23.1806,-30.48296 83.7442,-81.46267 163.4504,-97.32083 79.7061,-15.85816 86.1161,-2.53311 156.356,-28.11666 70.2398,-25.58354 124.7643,-77.619213 124.7643,-77.619213 z"/></clipPath><clipPath id="clipPath995" clipPathUnits="userSpaceOnUse"><path style="fill:#f7f2f2;fill-opacity:1;stroke:none;stroke-width:1px;stroke-linecap:butt;stroke-linejoin:miter;stroke-opacity:1" id="path997" d="m 1717.2585,538.23338 c 3.0953,60.01143 15.0366,152.46045 27.3613,198.87199 12.3248,46.41154 21.3143,96.78823 59.2198,148.0233 37.9054,51.23506 108.8803,96.79861 151.2931,107.42765 42.4127,10.62908 103.8701,15.29208 140.2795,-21.07208 36.4093,-36.36414 51.4878,-94.77595 50.6981,-118.10419 0,0 -40.5987,17.45624 -50.1766,23.43736 0,0 41.3846,-58.80714 82.3605,-51.91513 0,0 1.2368,-56.29706 -61.6096,-43.11928 0,0 -36.4805,7.28727 -61.8361,21.54235 0,0 8.91,-34.31051 41.4985,-51.0442 0,0 -33.7365,-5.57562 -64.4471,3.44015 0,0 -23.4569,43.15323 -53.3201,67.09426 0,0 -42.1505,-15.98774 -69.0571,-82.0759 -26.9067,-66.08815 -31.9031,-122.26254 -31.9031,-161.18094 0,-38.91839 -3.4046,-33.6153 -7.8454,-35.39313 -4.4407,-1.77783 -152.8035,-21.22207 -152.8035,-21.22207 z"/></clipPath></defs><g id="g10"><path style="fill:#00000b;stroke:#000;stroke-width:1px;stroke-linecap:butt;stroke-linejoin:miter;stroke-opacity:1;fill-opacity:1" id="path1467" d="m 1916.1789,1970.3862 c -49.2601,19.1977 -87.5662,14.1303 -121.7918,-27.882 -34.2256,-42.0122 -22.2423,-88.4748 -21.6749,-116.5845 0.5673,-28.1098 -73.0872,-576.1321 -73.0872,-576.1321 0,0 -7.8311,4.3408 -13.8029,13.0369 -5.9717,8.6961 -29.0975,36.2867 -29.6369,40.6296 -0.5395,4.3428 -87.9983,90.7003 -114.7617,106.8294 -26.7634,16.1291 -39.573,-2.4399 -42.5271,-10.3422 -2.9541,-7.9023 -3.7634,-19.5706 -3.7634,-19.5706 0,0 -21.3885,6.8433 -41.9926,1.7116 0,0 -170.8707,175.0973 -224.5229,134.2801 -53.6522,-40.8172 147.4855,-210.2903 147.4855,-210.2903 l -0.6282,-4.34 c 0,0 -145.7659,100.9535 -202.6213,109.8726 -56.8555,8.919 -61.846,2.7158 -73.8975,-12.7835 -12.0515,-15.4993 -21.2269,-57.5876 69.9822,-127.0224 91.2091,-69.4348 194.4154,-122.413 194.4154,-122.413 0,0 -185.9915,76.1032 -195.0914,13.9498 -9.1,-62.1535 81.553,-121.0896 132.1471,-135.7556 50.594,-14.666 134.0023,-22.0557 215.787,10.0445 81.7847,32.1001 128.0125,9.4657 138.4769,-1.0887 10.4644,-10.5544 76.7393,-76.32266 76.7393,-76.32266 l 84.4415,-61.66779 -40.7496,-194.99712 -30.0937,25.34811 c 0,0 27.0351,-34.3712 0,0 -27.0351,34.3712 -74.2056,62.12701 -92.6401,66.998 0,0 -35.7381,-116.6629 -31.0236,-201.68427 4.7145,-85.02137 44.657,-151.33206 44.657,-151.33206 l 178.173,225.06752 101.2983,1271.39927 z"/><path style="fill:#00003d;stroke:none;stroke-width:1px;stroke-linecap:butt;stroke-linejoin:miter;stroke-opacity:1;fill-opacity:1" id="path953" d="m 1773.8563,822.71101 c -8.3827,39.03835 -25.6626,100.19941 -41.747,128.64632 -16.0844,28.4469 -45.8791,118.22047 -47.1299,185.01907 -1.2507,66.7986 4.2436,110.0096 6.694,129.6176 2.4504,19.6081 149.7783,594.7788 149.881,601.7842 0.1028,7.0055 14.5699,61.837 55.665,101.0643 41.0951,39.2273 49.0448,33.3696 61.2434,34.1694 12.1987,0.7997 29.1942,5.429 42.2318,-46.376 13.0376,-51.8049 16.7775,-95.8023 19.5869,-102.578 2.8094,-6.7757 12.5454,-262.3788 11.5912,-272.4806 -0.9541,-10.1017 -3.8516,-34.9549 -5.5407,-42.0795 -1.689,-7.1246 -10.5994,-55.4014 -16.66,-70.2086 0,0 75.7876,-35.026 98.4686,-81.1357 0,0 114.9862,104.9825 155.9888,124.0299 41.0027,19.0474 77.9764,30.4015 86.9732,5.9383 8.9967,-24.4633 -13.8791,-49.415 -18.3588,-55.618 -4.4798,-6.2029 -54.8178,-68.1668 -113.8235,-120.0408 -59.0057,-51.874 -78.7229,-70.2196 -78.7229,-70.2196 0,0 185.2797,139.9028 269.1272,150.6788 83.8476,10.7759 71.6921,-45.4404 63.7204,-63.2052 -7.9718,-17.7649 -39.8213,-59.7281 -136.5614,-123.2087 -96.7401,-63.4807 -133.844,-77.0786 -133.844,-77.0786 0,0 144.2087,58.577 186.3722,30.5422 42.1635,-28.0348 -34.7974,-105.8238 -51.2029,-117.9116 -16.4055,-12.0879 -110.5457,-67.148 -235.9973,-38.1753 L 2053.6443,898.53524 2031.8999,755.7213 c 0,0 25.5547,-46.14105 22.7257,-89.68345 0,0 42.3827,-45.40231 49.9728,-70.63147 l 21.2621,-101.21716 c 0,0 -9.5566,-53.34141 -14.4611,-71.28886 -4.9045,-17.94744 -44.0944,-101.78842 -44.0944,-101.78842 0,0 -18.4713,-50.4314 -67.3033,-69.03127 -48.8319,-18.59986 -330.9288,203.25064 -329.7181,230.18718 1.2107,26.93654 1.7044,98.61645 60.3348,166.41024 58.6304,67.79379 43.2379,174.03292 43.2379,174.03292 z"/><g id="g989" clip-path="url(#clipPath995)"><path style="fill:#00a4d9;stroke:none;stroke-width:1px;stroke-linecap:butt;stroke-linejoin:miter;stroke-opacity:1;fill-opacity:1" id="path984" d="m 1714.0697,506.89606 110.014,11.63607 344.8537,315.93313 -28.9848,173.65804 -239.7243,10.656 -160.9097,-223.83404 z"/><path style="fill:#5f1589;stroke:none;stroke-width:1px;stroke-linecap:butt;stroke-linejoin:miter;stroke-opacity:1;fill-opacity:1" id="path980" d="m 1733.3578,543.89427 c 4.5546,32.5983 22.0045,182.42807 69.8024,281.04224 47.7978,98.61418 122.6438,169.76312 146.2632,188.80389 23.6194,19.0407 -286.5405,-4.398 -286.5405,-4.398 l -6.8109,-378.80581 36.4565,-164.94514 z"/><path style="fill:#80e13d;stroke:none;stroke-width:1px;stroke-linecap:butt;stroke-linejoin:miter;stroke-opacity:1;fill-opacity:1" id="path982" d="m 1820.6532,569.64359 c 0.1854,31.6025 3.3463,245.50117 109.766,299.50876 106.4197,54.00758 195.4345,-8.51044 195.4345,-8.51044 l 83.096,-23.22326 -63.5064,-124.59377 -280.6322,-174.60863 z"/></g><g id="g887" clip-path="url(#clipPath949)" mask="none"><path style="fill:#5f1589;stroke:none;stroke-width:1px;stroke-linecap:butt;stroke-linejoin:miter;stroke-opacity:1;fill-opacity:1" id="path841" d="m 1814.5583,1278.0866 -144.4536,75.7792 24.978,444.761 -218.981,-45.0283 4.4641,-567.3681 358.4937,42.8287 z"/><path style="fill:#00a4d9;stroke:none;stroke-width:1px;stroke-linecap:butt;stroke-linejoin:miter;stroke-opacity:1;fill-opacity:1" id="path845" d="m 1656.3793,1739.623 c -80.2909,-240.5157 -75.1069,-325.3779 -25.6084,-386.2869 49.4984,-60.909 75.2593,-69.3334 190.7325,-85.333 115.4732,-15.9997 65.7033,157.0456 65.7033,157.0456 l -102.157,-39.7668 -33.4823,157.2582 96.4556,179.744 127.8055,228.4779 -329.3957,-154.3528 z"/><path style="fill:#80e13d;stroke:none;stroke-width:1px;stroke-linecap:butt;stroke-linejoin:miter;stroke-opacity:1;fill-opacity:1" id="path847" d="m 1788.6312,1296.3332 c -55.0222,59.7171 -106.834,177.6725 -53.6794,319.273 53.1546,141.6005 176.3861,271.3846 222.5993,332.9055 46.2132,61.521 150.4612,22.7618 150.4612,22.7618 l 170.8889,-28.4319 64.9573,-92.0915 -307.1844,-117.1879 -182.5439,-123.5016 -45.4357,-197.3814 3.3311,-101.6106 z"/><path style="fill:#ffff85;stroke:none;stroke-width:1px;stroke-linecap:butt;stroke-linejoin:miter;stroke-opacity:1;fill-opacity:1" id="path851" d="m 1789.7804,1397.1168 c -4.9891,37.2202 -20.1325,96.7211 60.5742,226.8304 80.7068,130.1092 158.5745,175.9561 259.3674,211.3911 100.7929,35.435 248.0869,58.5151 248.0869,58.5151 l 54.4977,-380.2926 -111.1647,2.3488 -184.0292,163.679 -214.6127,-95.6628 -81.5012,-160.2802 z"/><path style="fill:#fe6a2d;stroke:none;stroke-width:1px;stroke-linecap:butt;stroke-linejoin:miter;stroke-opacity:1;fill-opacity:1" id="path853" d="m 1826.2759,1477.3096 c 19.4134,68.4906 57.777,171.8319 150.6681,212.1058 92.8911,40.2738 152.7439,22.8674 152.7439,22.8674 l 89.7612,-46.0061 89.2671,-144.6532 -47.6857,-156.0147 -121.8076,137.4345 -162.5757,59.332 -124.3067,-96.8511 z"/><path style="fill:#f21f29;stroke:none;stroke-width:1px;stroke-linecap:butt;stroke-linejoin:miter;stroke-opacity:1;fill-opacity:1" id="path855" d="m 1848.1424,1491.0829 c 21.5053,51.4691 89.2396,87.9172 119.5127,90.4892 30.2731,2.572 62.2758,-13.8833 62.2758,-13.8833 l 102.9218,-39.9512 40.3823,-110.2643 -78.0975,-35.4753 z"/></g><g id="g922" clip-path="url(#clipPath936)"><path style="fill:#ffff85;stroke:none;stroke-width:1px;stroke-linecap:butt;stroke-linejoin:miter;stroke-opacity:1;fill-opacity:1" id="path917" d="m 1923.7092,1457.5426 -9.0804,43.034 64.892,0.9849 34.0518,-119.4763 -42.2851,-8.3025 z"/><path style="fill:#00a7d6;stroke:none;stroke-width:1px;stroke-linecap:butt;stroke-linejoin:miter;stroke-opacity:1;fill-opacity:1" id="path913" d="m 1937.6757,1466.0217 c 0,0 23.4702,-30.6596 25.2112,-54.8673 0,0 7.5015,11.8211 8.7026,14.1658 0,0 4.9751,-18.8852 3.9737,-39.5418 l -27.7154,-11.4088 -10.8175,60.1054 z"/><path style="fill:#f32028;stroke:none;stroke-width:1px;stroke-linecap:butt;stroke-linejoin:miter;stroke-opacity:1;fill-opacity:1" id="path915" d="m 1923.1312,1487.4616 c 29.3975,-26.1146 40.8666,-47.269 43.8154,-62.8886 0,0 8.1715,18.1624 11.2874,26.7338 0,0 11.1568,-27.8257 12.8566,-58.8941 l 22.2648,11.8232 -32.759,83.2004 -63.105,6.8521 z"/></g><path style="fill:#6eb3f0;stroke:none;stroke-width:1px;stroke-linecap:butt;stroke-linejoin:miter;stroke-opacity:1;fill-opacity:1" id="path976" d="m 1972.6978,321.89386 c 31.9579,16.63613 44.8665,28.52543 44.8665,28.52543 l 4.9841,-4.29622 c 0,0 -20.314,-19.10269 -49.8506,-24.22921 z"/><g id="g970" clip-path="url(#clipPath972)"><path style="fill:#fe6a2d;stroke:none;stroke-width:1px;stroke-linecap:butt;stroke-linejoin:miter;stroke-opacity:1;fill-opacity:1" id="path965" d="m 1642.8739,463.2503 131.3767,179.85683 174.75,-15.25599 324.8662,-293.9733 L 2133.6189,60.006099 1975.6925,154.08939 1663.794,321.59264 Z"/><path style="fill:#f21f29;stroke:none;stroke-width:1px;stroke-linecap:butt;stroke-linejoin:miter;stroke-opacity:1;fill-opacity:1" id="path961" d="m 1840.7644,585.52482 c -4.3561,-42.48733 2.2083,-119.95458 52.3458,-149.34638 50.1374,-29.3918 65.749,-23.23496 99.9272,9.76854 34.1782,33.00351 21.7358,43.84014 77.4404,40.50768 55.7046,-3.33246 139.2129,-127.06282 139.2129,-127.06282 l 13.1737,255.3193 -238.7731,1.98049 z"/><path style="fill:#ffff85;stroke:none;stroke-width:1px;stroke-linecap:butt;stroke-linejoin:miter;stroke-opacity:1;fill-opacity:1" id="path963" d="m 1736.5314,562.91214 c -17.5485,-46.16222 -28.2118,-122.16201 -28.1612,-158.43006 0.051,-36.26805 5.9846,-88.59547 53.8108,-115.53271 47.8262,-26.93724 216.6926,-104.55192 227.9489,-122.97976 11.2564,-18.42783 -75.8516,-33.18526 -75.8516,-33.18526 l -198.9132,26.53911 -185.3973,249.4548 133.1428,116.50003 72.0073,75.28822 z"/></g></g></svg>